<?xml version="1.0" encoding="UTF-8" standalone="no"?>
<!-- Created with Inkscape (http://www.inkscape.org/) -->

<svg
   width="600"
   height="600"
   viewBox="0 0 600 600"
   version="1.1"
   id="svg5"
   inkscape:version="1.1 (c68e22c387, 2021-05-23)"
   sodipodi:docname="test.svg"
   xmlns:inkscape="http://www.inkscape.org/namespaces/inkscape"
   xmlns:sodipodi="http://sodipodi.sourceforge.net/DTD/sodipodi-0.dtd"
   xmlns="http://www.w3.org/2000/svg"
   xmlns:svg="http://www.w3.org/2000/svg">
  <sodipodi:namedview
     id="namedview7"
     pagecolor="#ffffff"
     bordercolor="#666666"
     borderopacity="1.0"
     inkscape:pageshadow="2"
     inkscape:pageopacity="0.0"
     inkscape:pagecheckerboard="0"
     inkscape:document-units="mm"
     showgrid="false"
     inkscape:zoom="1.4823794"
     inkscape:cx="262.75325"
     inkscape:cy="264.10243"
     inkscape:window-width="1920"
     inkscape:window-height="1017"
     inkscape:window-x="-8"
     inkscape:window-y="-8"
     inkscape:window-maximized="1"
     inkscape:current-layer="svg5"
     inkscape:lockguides="false"
     width="600px"
     units="px" />
  <defs
     id="defs2" />
     <style>
      .small {
         font: italic 13px sans-serif;
      }

      .heavy {
         font: bold 30px sans-serif;
      }

      .fancy {
         font: italic 40px serif;
         fill: red;
      }  
     </style>
  <mask
     id="mask1">
    <path
       style="display:inline;fill:#ffffff;stroke:#000000;stroke-width:5.92071;stroke-linecap:round;stroke-linejoin:round;stroke-miterlimit:4;stroke-dasharray:none;stroke-opacity:1"
       d="m 190.935,65.3133 -0.176,59.8827 c 2.478,9.728 8.621,16.807 19.55,20.431 l 53.895,0.529 c 11.736,-2.797 18.373,-10.127 21.663,-20.431 l 0.176,-60.9401 c -3.1,-9.4256 -8.289,-17.4226 -20.254,-20.783 l -52.134,-0.3522 c -13.514,2.6304 -19.485,11.0899 -22.72,21.6636 z"
       id="path10262"
       inkscape:label="path10262"
       fill="white" />
  </mask>
  <path
     style="display:none;fill:none;fill-opacity:1;stroke:#000000;stroke-width:5.92252;stroke-linecap:butt;stroke-linejoin:miter;stroke-miterlimit:4;stroke-dasharray:none;stroke-opacity:1"
     d="m 174.641,62.0634 1.993,480.2286 c 1.593,10.885 7.143,22.84 28.893,30.886 l 196.276,-0.997 c 20.49,-3.259 32.442,-14.489 38.857,-30.886 L 441.656,75.0156 C 439.191,54.3022 434.37,35.0968 408.777,29.1847 H 206.524 c -17.339,3.2861 -27.694,14.5646 -31.883,32.8787 z"
     id="iphone12_device"
     inkscape:label="path406" />
  <path
     style="display:none;fill:#ffffff;stroke:#000000;stroke-width:5.92071;stroke-linecap:round;stroke-linejoin:round;stroke-miterlimit:4;stroke-dasharray:none;stroke-opacity:1"
     d="m 190.935,65.3133 -0.176,59.8827 c 2.478,9.728 8.621,16.807 19.55,20.431 l 53.895,0.529 c 11.736,-2.797 18.373,-10.127 21.663,-20.431 l 0.176,-60.9401 c -3.1,-9.4256 -8.289,-17.4226 -20.254,-20.783 l -52.134,-0.3522 c -13.514,2.6304 -19.485,11.0899 -22.72,21.6636 z"
     id="iphone12_camera"
     inkscape:label="path10262" />
  <path
     style="display:none;fill:none;fill-opacity:1;stroke:#000000;stroke-width:5.92071;stroke-linecap:butt;stroke-linejoin:miter;stroke-miterlimit:4;stroke-dasharray:none;stroke-opacity:1"
     d="M 436.979,10.5378 436.274,566.394 179.129,565.69 V 10.5378 Z"
     id="note20ultra_device" />
  <path
     style="display:none;fill:#ffffff;stroke:#000000;stroke-width:5.92071;stroke-linecap:butt;stroke-linejoin:round;stroke-miterlimit:4;stroke-dasharray:none;stroke-opacity:1"
     d="m 200.047,45.1259 -0.498,128.5261 c 2.044,6.832 7.471,9.716 13.451,11.956 h 68.746 c 5.628,-1.111 8.948,-6.26 11.956,-11.956 L 293.204,46.6204 C 292.461,40.5766 291.59,34.5849 280.75,32.6719 H 213 c -6.971,0.7751 -11.148,5.1045 -12.953,12.454 z"
     id="note20ultra_camera" />
  <path
     style="display:none;fill:none;stroke:#000000;stroke-width:5.92071;stroke-linecap:butt;stroke-linejoin:round;stroke-miterlimit:4;stroke-dasharray:none;stroke-opacity:1"
     d="m 7.25868,244.889 0.99633,148.95 c 6.14259,22.228 20.86359,38.419 52.30699,42.842 l 482.719,0.498 c 30.095,-3.617 46.173,-20.129 52.805,-45.332 L 595.09,236.918 c -12.42,-40.315 -41.528,-52.021 -80.204,-47.325 l 0.122,9.401 c -7.597,-3.612 -8.672,-8.155 -9.863,-12.682 l -406.853,1.057 c -0.9121,4.056 -1.701,8.132 -8.1019,11.272 l -0.7045,-10.92 c -36.6123,3.717 -75.6188,3.444 -82.22692,57.168 z"
     id="nintendoswitch_device" />
  <path
     style="display:none;fill:none;stroke:#000000;stroke-width:5.92071;stroke-linecap:butt;stroke-linejoin:miter;stroke-miterlimit:4;stroke-dasharray:none;stroke-opacity:1"
     d="M 194.055,8.94748 423.02,9.29973 c 9.969,3.75847 17.133,10.94577 18.67,25.00997 l -0.353,532.6073 c -2.918,10.119 -5.37,20.579 -17.965,23.601 l -226.499,1.409 c -11.972,-2.704 -18.455,-9.328 -21.135,-18.669 V 28.3214 c 2.026,-12.2861 9.811,-16.3454 18.317,-19.37392 z"
     id="s21ultra_device" />
  <path
     style="display:none;fill:#ffffff;fill-opacity:1;stroke:#000000;stroke-width:5.66929;stroke-linecap:butt;stroke-linejoin:miter;stroke-miterlimit:4;stroke-dasharray:none;stroke-opacity:1"
     d="m 178.76666,203.72653 h 102.20055 c 11.76841,-2.01694 17.3787,-10.70518 21.58692,-20.91233 l 0.67459,-171.34615 -99.1649,0.674591 c -14.07852,1.414769 -24.09309,6.540102 -23.61069,21.249621 z"
     id="s21ultra_camera"
     sodipodi:nodetypes="ccccccc" />
</svg>
